<svg width="820" height="820" viewBox="-66 -107 820 820" fill="none" xmlns="http://www.w3.org/2000/svg">
<circle cx="344" cy="303" r="410" fill="#FCF9EB"/>
<g transform="translate(344,303) scale(0.72) translate(-344,-303)">
<path d="M691.266 11.9228C708.173 16.4042 717.79 33.0613 713.217 49.9442C703.344 86.3968 682.034 146.455 644.948 167.63C608.119 188.658 546.022 177.005 509.819 167.309C492.988 162.801 483.414 146.219 487.925 129.389C497.63 93.1884 518.587 33.5841 555.212 12.2031C592.093 -9.32739 654.76 2.24692 691.266 11.9228Z" fill="#EDB346"/>
<path d="M270.891 565.783C454.69 615.056 643.32 514.956 708.021 339.858C714.559 322.164 703.602 303.344 685.39 298.461L45.5172 126.921C27.3045 122.039 8.40996 132.857 5.22963 151.451C-26.2421 335.456 87.0916 516.509 270.891 565.783Z" fill="#4B8F8C"/>
</g>
</svg>
